<svg xmlns="http://www.w3.org/2000/svg" width="1900" height="1120" viewBox="0 0 1900 1120">
<style>
text{font-family:-apple-system,BlinkMacSystemFont,'Segoe UI',sans-serif;fill:#1d1d1f}
.title{font-size:54px;font-weight:800}.subtitle{font-size:30px;fill:#5a5d64}
.axis{font-size:30px;font-weight:700}.tick{font-size:24px;fill:#5a5d64}
.label{font-size:25px;font-weight:750}.foot{font-size:21px;fill:#5a5d64}
</style>
<rect width="100%" height="100%" fill="#fbfaf7"/>
<text class="title" x="561.0" y="78">Answer Pass^3 vs Log Cost</text>
<text class="subtitle" x="403.1" y="124">224-question 8x28; y = answer_correct pass^3; x = mean three-trial cost</text>
<line x1="170" y1="883.9" x2="1470" y2="883.9" stroke="#ded8ce" stroke-width="2"/>
<text class="tick" x="98.5" y="891.9">80%</text>
<line x1="170" y1="718.7" x2="1470" y2="718.7" stroke="#ded8ce" stroke-width="2"/>
<text class="tick" x="98.5" y="726.7">85%</text>
<line x1="170" y1="553.5" x2="1470" y2="553.5" stroke="#ded8ce" stroke-width="2"/>
<text class="tick" x="98.5" y="561.5">90%</text>
<line x1="170" y1="388.3" x2="1470" y2="388.3" stroke="#ded8ce" stroke-width="2"/>
<text class="tick" x="98.5" y="396.3">95%</text>
<line x1="170" y1="223.0" x2="1470" y2="223.0" stroke="#ded8ce" stroke-width="2"/>
<text class="tick" x="85.0" y="231.0">100%</text>
<line x1="320.4" y1="190" x2="320.4" y2="950" stroke="#ded8ce" stroke-width="2"/>
<text class="tick" x="290.4" y="996">$0.01</text>
<line x1="470.8" y1="190" x2="470.8" y2="950" stroke="#ded8ce" stroke-width="2"/>
<text class="tick" x="440.8" y="996">$0.02</text>
<line x1="669.6" y1="190" x2="669.6" y2="950" stroke="#ded8ce" stroke-width="2"/>
<text class="tick" x="639.6" y="996">$0.05</text>
<line x1="820.0" y1="190" x2="820.0" y2="950" stroke="#ded8ce" stroke-width="2"/>
<text class="tick" x="796.7" y="996">$0.1</text>
<line x1="970.4" y1="190" x2="970.4" y2="950" stroke="#ded8ce" stroke-width="2"/>
<text class="tick" x="947.1" y="996">$0.2</text>
<line x1="1169.2" y1="190" x2="1169.2" y2="950" stroke="#ded8ce" stroke-width="2"/>
<text class="tick" x="1145.9" y="996">$0.5</text>
<line x1="1319.6" y1="190" x2="1319.6" y2="950" stroke="#ded8ce" stroke-width="2"/>
<text class="tick" x="1306.2" y="996">$1</text>
<line x1="1470.0" y1="190" x2="1470.0" y2="950" stroke="#ded8ce" stroke-width="2"/>
<text class="tick" x="1456.6" y="996">$2</text>
<line x1="170" y1="950" x2="1470" y2="950" stroke="#1d1d1f" stroke-width="4"/>
<line x1="170" y1="190" x2="170" y2="950" stroke="#1d1d1f" stroke-width="4"/>
<text class="axis" x="170" y="158">Answer-correct pass^3 (%)</text>
<text class="axis" x="563.7" y="1055">Pass^3 run cost, USD (log scale)</text>
<polyline points="351.1,888.3 505.9,782.1 571.5,599.2 597.0,503.3" fill="none" stroke="#d04f83" stroke-width="5" stroke-linecap="round" stroke-linejoin="round"/>
<circle cx="351.1" cy="888.3" r="13" fill="#d04f83" stroke="#fbfaf7" stroke-width="4"><title>GPT-5.4 nano none: answer pass^3 79.87% at $0.01</title></circle>
<text class="label" x="365.1" y="936.3">none</text>
<circle cx="505.9" cy="782.1" r="13" fill="#d04f83" stroke="#fbfaf7" stroke-width="4"><title>GPT-5.4 nano low: answer pass^3 83.08% at $0.02</title></circle>
<text class="label" x="481.9" y="752.1">low</text>
<circle cx="571.5" cy="599.2" r="13" fill="#d04f83" stroke="#fbfaf7" stroke-width="4"><title>GPT-5.4 nano medium: answer pass^3 88.62% at $0.03</title></circle>
<text class="label" x="541.5" y="561.2">med</text>
<circle cx="597.0" cy="503.3" r="13" fill="#d04f83" stroke="#fbfaf7" stroke-width="4"><title>GPT-5.4 nano high: answer pass^3 91.52% at $0.04</title></circle>
<text class="label" x="569.0" y="461.3">high</text>
<polyline points="632.4,745.2 855.9,463.5 920.1,435.5 986.5,391.2" fill="none" stroke="#7d8b17" stroke-width="5" stroke-linecap="round" stroke-linejoin="round"/>
<circle cx="632.4" cy="745.2" r="13" fill="#7d8b17" stroke="#fbfaf7" stroke-width="4"><title>GPT-5.4 mini none: answer pass^3 84.20% at $0.04</title></circle>
<text class="label" x="594.4" y="791.2">none</text>
<circle cx="855.9" cy="463.5" r="13" fill="#7d8b17" stroke="#fbfaf7" stroke-width="4"><title>GPT-5.4 mini low: answer pass^3 92.72% at $0.1</title></circle>
<text class="label" x="785.9" y="443.5">low</text>
<circle cx="920.1" cy="435.5" r="13" fill="#7d8b17" stroke="#fbfaf7" stroke-width="4"><title>GPT-5.4 mini medium: answer pass^3 93.57% at $0.2</title></circle>
<text class="label" x="866.1" y="477.5">med</text>
<circle cx="986.5" cy="391.2" r="13" fill="#7d8b17" stroke="#fbfaf7" stroke-width="4"><title>GPT-5.4 mini high: answer pass^3 94.91% at $0.2</title></circle>
<text class="label" x="950.5" y="353.2">high</text>
<polyline points="1041.5,400.1 1290.8,223.0 1322.5,252.5 1371.1,267.3 1418.2,267.3" fill="none" stroke="#2075b9" stroke-width="5" stroke-linecap="round" stroke-linejoin="round"/>
<circle cx="1041.5" cy="400.1" r="13" fill="#2075b9" stroke="#fbfaf7" stroke-width="4"><title>GPT-5.5 none: answer pass^3 94.64% at $0.3</title></circle>
<text class="label" x="1013.5" y="444.1">none</text>
<circle cx="1290.8" cy="223.0" r="13" fill="#2075b9" stroke="#fbfaf7" stroke-width="4"><title>GPT-5.5 low: answer pass^3 100.00% at $0.9</title></circle>
<text class="label" x="1220.8" y="199.0">low</text>
<circle cx="1322.5" cy="252.5" r="13" fill="#2075b9" stroke="#fbfaf7" stroke-width="4"><title>GPT-5.5 medium: answer pass^3 99.11% at $1.0</title></circle>
<text class="label" x="1200.5" y="310.5">med</text>
<circle cx="1371.1" cy="267.3" r="13" fill="#2075b9" stroke="#fbfaf7" stroke-width="4"><title>GPT-5.5 high: answer pass^3 98.66% at $1.3</title></circle>
<text class="label" x="1389.1" y="319.3">high</text>
<circle cx="1418.2" cy="267.3" r="13" fill="#2075b9" stroke="#fbfaf7" stroke-width="4"><title>GPT-5.5 xhigh: answer pass^3 98.66% at $1.6</title></circle>
<text class="label" x="1436.2" y="277.3">xhigh</text>
<polyline points="927.5,650.8 996.3,414.8 1241.6,311.6 1310.1,282.0" fill="none" stroke="#c25f3a" stroke-width="5" stroke-linecap="round" stroke-linejoin="round"/>
<circle cx="927.5" cy="650.8" r="13" fill="#c25f3a" stroke="#fbfaf7" stroke-width="4"><title>Claude Sonnet 4.6 low: answer pass^3 87.05% at $0.2</title></circle>
<text class="label" x="887.5" y="698.8">low</text>
<circle cx="996.3" cy="414.8" r="13" fill="#c25f3a" stroke="#fbfaf7" stroke-width="4"><title>Claude Sonnet 4.6 medium: answer pass^3 94.20% at $0.2</title></circle>
<text class="label" x="884.3" y="452.8">med</text>
<circle cx="1241.6" cy="311.6" r="13" fill="#c25f3a" stroke="#fbfaf7" stroke-width="4"><title>Claude Sonnet 4.6 high: answer pass^3 97.32% at $0.7</title></circle>
<text class="label" x="1261.6" y="349.6">high</text>
<circle cx="1310.1" cy="282.0" r="13" fill="#c25f3a" stroke="#fbfaf7" stroke-width="4"><title>Claude Sonnet 4.6 max: answer pass^3 98.21% at $1.0</title></circle>
<text class="label" x="1330.1" y="248.0">max</text>
<polyline points="707.8,532.8 1273.1,296.8 1380.4,267.3 1391.4,282.0" fill="none" stroke="#2f8f66" stroke-width="5" stroke-linecap="round" stroke-linejoin="round"/>
<circle cx="707.8" cy="532.8" r="13" fill="#2f8f66" stroke="#fbfaf7" stroke-width="4"><title>Gemini 3.5 Flash minimal: answer pass^3 90.62% at $0.06</title></circle>
<text class="label" x="723.8" y="580.8">min</text>
<circle cx="1273.1" cy="296.8" r="13" fill="#2f8f66" stroke="#fbfaf7" stroke-width="4"><title>Gemini 3.5 Flash low: answer pass^3 97.77% at $0.8</title></circle>
<text class="label" x="1181.1" y="338.8">low</text>
<circle cx="1380.4" cy="267.3" r="13" fill="#2f8f66" stroke="#fbfaf7" stroke-width="4"><title>Gemini 3.5 Flash medium: answer pass^3 98.66% at $1.3</title></circle>
<text class="label" x="1264.4" y="237.3">med</text>
<circle cx="1391.4" cy="282.0" r="13" fill="#2f8f66" stroke="#fbfaf7" stroke-width="4"><title>Gemini 3.5 Flash high: answer pass^3 98.21% at $1.4</title></circle>
<text class="label" x="1413.4" y="304.0">high</text>
<polyline points="313.8,577.1 884.6,518.1 908.6,296.8 1021.2,311.6" fill="none" stroke="#8b62b8" stroke-width="5" stroke-linecap="round" stroke-linejoin="round"/>
<circle cx="313.8" cy="577.1" r="13" fill="#8b62b8" stroke="#fbfaf7" stroke-width="4"><title>Gemini 3.1 Flash Lite minimal: answer pass^3 89.29% at $0.01</title></circle>
<text class="label" x="329.8" y="625.1">min</text>
<circle cx="884.6" cy="518.1" r="13" fill="#8b62b8" stroke="#fbfaf7" stroke-width="4"><title>Gemini 3.1 Flash Lite low: answer pass^3 91.07% at $0.1</title></circle>
<text class="label" x="802.6" y="534.1">low</text>
<circle cx="908.6" cy="296.8" r="13" fill="#8b62b8" stroke="#fbfaf7" stroke-width="4"><title>Gemini 3.1 Flash Lite medium: answer pass^3 97.77% at $0.2</title></circle>
<text class="label" x="796.6" y="268.8">med</text>
<circle cx="1021.2" cy="311.6" r="13" fill="#8b62b8" stroke="#fbfaf7" stroke-width="4"><title>Gemini 3.1 Flash Lite high: answer pass^3 97.32% at $0.3</title></circle>
<text class="label" x="1043.2" y="335.6">high</text>
<text class="label" x="1540" y="205">Models</text>
<line x1="1540" y1="245" x2="1610" y2="245" stroke="#d04f83" stroke-width="7"/>
<text class="tick" x="1626" y="253">GPT-5.4 nano</text>
<line x1="1540" y1="293" x2="1610" y2="293" stroke="#7d8b17" stroke-width="7"/>
<text class="tick" x="1626" y="301">GPT-5.4 mini</text>
<line x1="1540" y1="341" x2="1610" y2="341" stroke="#2075b9" stroke-width="7"/>
<text class="tick" x="1626" y="349">GPT-5.5</text>
<line x1="1540" y1="389" x2="1610" y2="389" stroke="#c25f3a" stroke-width="7"/>
<text class="tick" x="1626" y="397">Claude Sonnet 4.6</text>
<line x1="1540" y1="437" x2="1610" y2="437" stroke="#2f8f66" stroke-width="7"/>
<text class="tick" x="1626" y="445">Gemini 3.5 Flash</text>
<line x1="1540" y1="485" x2="1610" y2="485" stroke="#8b62b8" stroke-width="7"/>
<text class="tick" x="1626" y="493">Gemini 3.1 Flash Lite</text>
<text class="tick" x="1540" y="593">Each point is a mode.</text>
<text class="tick" x="1540" y="629">pass^3 = all 3 attempts right.</text>
<text class="tick" x="1540" y="665">answer_correct excludes format.</text>
<text class="tick" x="1540" y="701">min = minimal.</text>
<text class="tick" x="1540" y="737">med = medium.</text>
<text class="foot" x="170" y="1098">Cost for 5-trial nano/mini sources is the mean cost of all 3-trial subsets; y uses answer_correct, not strict_correct.</text>
</svg>
