<svg xmlns="http://www.w3.org/2000/svg" width="960" height="298" viewBox="0 0 960 298" role="img" aria-labelledby="snapshot-artifact-status-title snapshot-artifact-status-desc">
<title id="snapshot-artifact-status-title">Snapshot artifact status</title>
<desc id="snapshot-artifact-status-desc">Machine-readable registry labels for public release artifacts. Generated from source release artifacts.</desc>
<rect width="100%" height="100%" fill="#fbfaf7" />
<text x="24" y="34" font-size="22" font-weight="700" fill="#1f2023">Snapshot artifact status</text>
<text x="24" y="58" font-size="13" fill="#5f6368">Machine-readable registry labels for public release artifacts</text>
<text x="24" y="101" font-size="12" fill="#344054">current</text>
<rect x="260" y="86" width="580" height="18" fill="#ebe5db" />
<rect x="260" y="86" width="580.00" height="18" fill="#216db4" />
<text x="852" y="101" font-size="12" fill="#344054">1</text>
<text x="24" y="131" font-size="12" fill="#344054">stale</text>
<rect x="260" y="116" width="580" height="18" fill="#ebe5db" />
<rect x="260" y="116" width="580.00" height="18" fill="#d77250" />
<text x="852" y="131" font-size="12" fill="#344054">1</text>
<text x="24" y="161" font-size="12" fill="#344054">exploratory</text>
<rect x="260" y="146" width="580" height="18" fill="#ebe5db" />
<rect x="260" y="146" width="580.00" height="18" fill="#216db4" />
<text x="852" y="161" font-size="12" fill="#344054">1</text>
<text x="24" y="191" font-size="12" fill="#344054">proofpoint</text>
<rect x="260" y="176" width="580" height="18" fill="#ebe5db" />
<rect x="260" y="176" width="580.00" height="18" fill="#d77250" />
<text x="852" y="191" font-size="12" fill="#344054">1</text>
<text x="24" y="221" font-size="12" fill="#344054">release snapshot</text>
<rect x="260" y="206" width="580" height="18" fill="#ebe5db" />
<rect x="260" y="206" width="580.00" height="18" fill="#216db4" />
<text x="852" y="221" font-size="12" fill="#344054">1</text>
<text x="24" y="274" font-size="12" fill="#5f6368">Generated from Generated from snapshot-registry.json.</text>
</svg>