<svg xmlns="http://www.w3.org/2000/svg" width="1900" height="1120" viewBox="0 0 1900 1120">
<style>
text{font-family:-apple-system,BlinkMacSystemFont,'Inter',sans-serif;fill:#1f2023}
.title{font-size:54px;font-weight:800}.subtitle{font-size:30px;fill:#5f6368}
.axis{font-size:30px;font-weight:700}.tick{font-size:24px;fill:#5f6368}
.label{font-size:26px;font-weight:700}.foot{font-size:21px;fill:#5f6368}
</style>
<rect width="100%" height="100%" fill="#fbfaf7"/>
<text class="title" x="571.5" y="78">OpenAI Effort Cost Curves</text>
<text class="subtitle" x="587.3" y="124">224-question panel; log-scaled reported run cost</text>
<line x1="170" y1="855.0" x2="1470" y2="855.0" stroke="#ded8ce" stroke-width="2"/>
<text class="tick" x="98.5" y="863.0">80%</text>
<line x1="170" y1="696.7" x2="1470" y2="696.7" stroke="#ded8ce" stroke-width="2"/>
<text class="tick" x="98.5" y="704.7">85%</text>
<line x1="170" y1="538.3" x2="1470" y2="538.3" stroke="#ded8ce" stroke-width="2"/>
<text class="tick" x="98.5" y="546.3">90%</text>
<line x1="170" y1="380.0" x2="1470" y2="380.0" stroke="#ded8ce" stroke-width="2"/>
<text class="tick" x="98.5" y="388.0">95%</text>
<line x1="170" y1="221.7" x2="1470" y2="221.7" stroke="#ded8ce" stroke-width="2"/>
<text class="tick" x="85.0" y="229.7">100%</text>
<line x1="170.0" y1="190" x2="170.0" y2="950" stroke="#ded8ce" stroke-width="2"/>
<text class="tick" x="133.3" y="996">$0.001</text>
<line x1="300.4" y1="190" x2="300.4" y2="950" stroke="#ded8ce" stroke-width="2"/>
<text class="tick" x="263.7" y="996">$0.002</text>
<line x1="376.8" y1="190" x2="376.8" y2="950" stroke="#ded8ce" stroke-width="2"/>
<text class="tick" x="340.0" y="996">$0.003</text>
<line x1="472.9" y1="190" x2="472.9" y2="950" stroke="#ded8ce" stroke-width="2"/>
<text class="tick" x="436.2" y="996">$0.005</text>
<line x1="603.3" y1="190" x2="603.3" y2="950" stroke="#ded8ce" stroke-width="2"/>
<text class="tick" x="573.3" y="996">$0.01</text>
<line x1="733.8" y1="190" x2="733.8" y2="950" stroke="#ded8ce" stroke-width="2"/>
<text class="tick" x="703.8" y="996">$0.02</text>
<line x1="906.2" y1="190" x2="906.2" y2="950" stroke="#ded8ce" stroke-width="2"/>
<text class="tick" x="876.2" y="996">$0.05</text>
<line x1="1036.7" y1="190" x2="1036.7" y2="950" stroke="#ded8ce" stroke-width="2"/>
<text class="tick" x="1006.7" y="996">$0.10</text>
<line x1="1167.1" y1="190" x2="1167.1" y2="950" stroke="#ded8ce" stroke-width="2"/>
<text class="tick" x="1137.1" y="996">$0.20</text>
<line x1="1339.6" y1="190" x2="1339.6" y2="950" stroke="#ded8ce" stroke-width="2"/>
<text class="tick" x="1309.6" y="996">$0.50</text>
<line x1="1470.0" y1="190" x2="1470.0" y2="950" stroke="#ded8ce" stroke-width="2"/>
<text class="tick" x="1440.0" y="996">$1.00</text>
<line x1="170" y1="950" x2="1470" y2="950" stroke="#1f2023" stroke-width="4"/>
<line x1="170" y1="190" x2="170" y2="950" stroke="#1f2023" stroke-width="4"/>
<text class="axis" x="170" y="158">Answer accuracy (%)</text>
<text class="axis" x="490.8" y="1055">Estimated total run cost, USD (log scale)</text>
<polyline points="231.1,843.7 417.3,645.8 589.5,433.7 609.0,391.3 744.3,334.8" fill="none" stroke="#d04f83" stroke-width="5" stroke-linecap="round" stroke-linejoin="round"/>
<circle cx="231.1" cy="843.7" r="13" fill="#d04f83" stroke="#fbfaf7" stroke-width="4"/>
<text class="label" x="245.1" y="828.7">none</text>
<circle cx="417.3" cy="645.8" r="13" fill="#d04f83" stroke="#fbfaf7" stroke-width="4"/>
<text class="label" x="431.3" y="630.8">low</text>
<circle cx="589.5" cy="433.7" r="13" fill="#d04f83" stroke="#fbfaf7" stroke-width="4"/>
<text class="label" x="603.5" y="418.7">medium</text>
<circle cx="609.0" cy="391.3" r="13" fill="#d04f83" stroke="#fbfaf7" stroke-width="4"/>
<text class="label" x="623.0" y="376.3">high</text>
<circle cx="744.3" cy="334.8" r="13" fill="#d04f83" stroke="#fbfaf7" stroke-width="4"/>
<text class="label" x="758.3" y="319.8">xhigh</text>
<polyline points="472.8,688.2 812.8,334.8 877.8,334.8 930.1,278.2 1132.0,278.2" fill="none" stroke="#7d8b17" stroke-width="5" stroke-linecap="round" stroke-linejoin="round"/>
<circle cx="472.8" cy="688.2" r="13" fill="#7d8b17" stroke="#fbfaf7" stroke-width="4"/>
<text class="label" x="486.8" y="673.2">none</text>
<circle cx="812.8" cy="334.8" r="13" fill="#7d8b17" stroke="#fbfaf7" stroke-width="4"/>
<text class="label" x="826.8" y="319.8">low</text>
<circle cx="877.8" cy="334.8" r="13" fill="#7d8b17" stroke="#fbfaf7" stroke-width="4"/>
<text class="label" x="891.8" y="319.8">medium</text>
<circle cx="930.1" cy="278.2" r="13" fill="#7d8b17" stroke="#fbfaf7" stroke-width="4"/>
<text class="label" x="944.1" y="263.2">high</text>
<circle cx="1132.0" cy="278.2" r="13" fill="#7d8b17" stroke="#fbfaf7" stroke-width="4"/>
<text class="label" x="1146.0" y="263.2">xhigh</text>
<polyline points="702.0,447.9 900.4,306.5 981.3,278.2 1037.5,292.4 1213.5,249.9" fill="none" stroke="#1aa16f" stroke-width="5" stroke-linecap="round" stroke-linejoin="round"/>
<circle cx="702.0" cy="447.9" r="13" fill="#1aa16f" stroke="#fbfaf7" stroke-width="4"/>
<text class="label" x="716.0" y="432.9">none</text>
<circle cx="900.4" cy="306.5" r="13" fill="#1aa16f" stroke="#fbfaf7" stroke-width="4"/>
<text class="label" x="914.4" y="291.5">low</text>
<circle cx="981.3" cy="278.2" r="13" fill="#1aa16f" stroke="#fbfaf7" stroke-width="4"/>
<text class="label" x="995.3" y="263.2">medium</text>
<circle cx="1037.5" cy="292.4" r="13" fill="#1aa16f" stroke="#fbfaf7" stroke-width="4"/>
<text class="label" x="1051.5" y="277.4">high</text>
<circle cx="1213.5" cy="249.9" r="13" fill="#1aa16f" stroke="#fbfaf7" stroke-width="4"/>
<text class="label" x="1227.5" y="234.9">xhigh</text>
<polyline points="829.0,391.3 1098.9,221.7 1109.5,235.8 1175.5,235.8 1290.1,221.7" fill="none" stroke="#2075b9" stroke-width="5" stroke-linecap="round" stroke-linejoin="round"/>
<circle cx="829.0" cy="391.3" r="13" fill="#2075b9" stroke="#fbfaf7" stroke-width="4"/>
<text class="label" x="843.0" y="376.3">none</text>
<circle cx="1098.9" cy="221.7" r="13" fill="#2075b9" stroke="#fbfaf7" stroke-width="4"/>
<text class="label" x="1112.9" y="206.7">low</text>
<circle cx="1109.5" cy="235.8" r="13" fill="#2075b9" stroke="#fbfaf7" stroke-width="4"/>
<text class="label" x="1123.5" y="220.8">medium</text>
<circle cx="1175.5" cy="235.8" r="13" fill="#2075b9" stroke="#fbfaf7" stroke-width="4"/>
<text class="label" x="1189.5" y="220.8">high</text>
<circle cx="1290.1" cy="221.7" r="13" fill="#2075b9" stroke="#fbfaf7" stroke-width="4"/>
<text class="label" x="1304.1" y="206.7">xhigh</text>
<line x1="1540" y1="197" x2="1610" y2="197" stroke="#d04f83" stroke-width="7"/>
<text class="tick" x="1626" y="205">GPT-5.4 nano</text>
<line x1="1540" y1="242" x2="1610" y2="242" stroke="#7d8b17" stroke-width="7"/>
<text class="tick" x="1626" y="250">GPT-5.4 mini</text>
<line x1="1540" y1="287" x2="1610" y2="287" stroke="#1aa16f" stroke-width="7"/>
<text class="tick" x="1626" y="295">GPT-5.4</text>
<line x1="1540" y1="332" x2="1610" y2="332" stroke="#2075b9" stroke-width="7"/>
<text class="tick" x="1626" y="340">GPT-5.5</text>
<text class="foot" x="170" y="1098">Source: 223-row merged 224-question 8x28 leaderboard. Y uses answer correctness.</text>
</svg>
