<svg xmlns="http://www.w3.org/2000/svg" width="1900" height="1120" viewBox="0 0 1900 1120">
<style>
text{font-family:-apple-system,BlinkMacSystemFont,'Inter',sans-serif;fill:#1f2023}
.title{font-size:54px;font-weight:800}.subtitle{font-size:30px;fill:#5f6368}
.axis{font-size:30px;font-weight:700}.tick{font-size:24px;fill:#5f6368}
.label{font-size:26px;font-weight:700}.foot{font-size:21px;fill:#5f6368}
</style>
<rect width="100%" height="100%" fill="#fbfaf7"/>
<text class="title" x="324.2" y="78">OpenAI size curve: no thinking vs low effort</text>
<text class="subtitle" x="378.2" y="124">224-question panel; none and low points are present for current OpenAI sizes</text>
<line x1="170" y1="855.0" x2="1380" y2="855.0" stroke="#ded8ce" stroke-width="2"/>
<text class="tick" x="98.5" y="863.0">80%</text>
<line x1="170" y1="696.7" x2="1380" y2="696.7" stroke="#ded8ce" stroke-width="2"/>
<text class="tick" x="98.5" y="704.7">85%</text>
<line x1="170" y1="538.3" x2="1380" y2="538.3" stroke="#ded8ce" stroke-width="2"/>
<text class="tick" x="98.5" y="546.3">90%</text>
<line x1="170" y1="380.0" x2="1380" y2="380.0" stroke="#ded8ce" stroke-width="2"/>
<text class="tick" x="98.5" y="388.0">95%</text>
<line x1="170" y1="221.7" x2="1380" y2="221.7" stroke="#ded8ce" stroke-width="2"/>
<text class="tick" x="85.0" y="229.7">100%</text>
<line x1="170.0" y1="190" x2="170.0" y2="950" stroke="#ded8ce" stroke-width="2"/>
<text class="tick" x="133.3" y="996">$0.001</text>
<line x1="291.4" y1="190" x2="291.4" y2="950" stroke="#ded8ce" stroke-width="2"/>
<text class="tick" x="254.7" y="996">$0.002</text>
<line x1="362.4" y1="190" x2="362.4" y2="950" stroke="#ded8ce" stroke-width="2"/>
<text class="tick" x="325.7" y="996">$0.003</text>
<line x1="451.9" y1="190" x2="451.9" y2="950" stroke="#ded8ce" stroke-width="2"/>
<text class="tick" x="415.2" y="996">$0.005</text>
<line x1="573.3" y1="190" x2="573.3" y2="950" stroke="#ded8ce" stroke-width="2"/>
<text class="tick" x="543.3" y="996">$0.01</text>
<line x1="694.7" y1="190" x2="694.7" y2="950" stroke="#ded8ce" stroke-width="2"/>
<text class="tick" x="664.7" y="996">$0.02</text>
<line x1="855.3" y1="190" x2="855.3" y2="950" stroke="#ded8ce" stroke-width="2"/>
<text class="tick" x="825.3" y="996">$0.05</text>
<line x1="976.7" y1="190" x2="976.7" y2="950" stroke="#ded8ce" stroke-width="2"/>
<text class="tick" x="946.7" y="996">$0.10</text>
<line x1="1098.1" y1="190" x2="1098.1" y2="950" stroke="#ded8ce" stroke-width="2"/>
<text class="tick" x="1068.1" y="996">$0.20</text>
<line x1="1258.6" y1="190" x2="1258.6" y2="950" stroke="#ded8ce" stroke-width="2"/>
<text class="tick" x="1228.6" y="996">$0.50</text>
<line x1="1380.0" y1="190" x2="1380.0" y2="950" stroke="#ded8ce" stroke-width="2"/>
<text class="tick" x="1350.0" y="996">$1.00</text>
<line x1="170" y1="950" x2="1380" y2="950" stroke="#1f2023" stroke-width="4"/>
<line x1="170" y1="190" x2="170" y2="950" stroke="#1f2023" stroke-width="4"/>
<text class="axis" x="170" y="158">Answer accuracy (%)</text>
<text class="axis" x="445.8" y="1055">Estimated total run cost, USD (log scale)</text>
<polyline points="226.8,843.7 451.8,688.2 665.1,447.9 783.4,391.3" fill="none" stroke="#54565a" stroke-width="5" stroke-linecap="round" stroke-linejoin="round"/>
<circle cx="226.8" cy="843.7" r="13" fill="#d04f83" stroke="#fbfaf7" stroke-width="4"/>
<text class="label" x="240.8" y="828.7">nano</text>
<circle cx="451.8" cy="688.2" r="13" fill="#7d8b17" stroke="#fbfaf7" stroke-width="4"/>
<text class="label" x="465.8" y="673.2">mini</text>
<circle cx="665.1" cy="447.9" r="13" fill="#1aa16f" stroke="#fbfaf7" stroke-width="4"/>
<text class="label" x="679.1" y="432.9">5.4</text>
<circle cx="783.4" cy="391.3" r="13" fill="#2075b9" stroke="#fbfaf7" stroke-width="4"/>
<text class="label" x="797.4" y="376.3">5.5</text>
<polyline points="400.2,645.8 768.3,334.8 849.8,306.5 1034.6,221.7" fill="none" stroke="#54565a" stroke-width="5" stroke-linecap="round" stroke-linejoin="round" stroke-dasharray="12 10"/>
<circle cx="400.2" cy="645.8" r="13" fill="#d04f83" stroke="#fbfaf7" stroke-width="4"/>
<text class="label" x="414.2" y="630.8">nano</text>
<circle cx="768.3" cy="334.8" r="13" fill="#7d8b17" stroke="#fbfaf7" stroke-width="4"/>
<text class="label" x="782.3" y="319.8">mini</text>
<circle cx="849.8" cy="306.5" r="13" fill="#1aa16f" stroke="#fbfaf7" stroke-width="4"/>
<text class="label" x="863.8" y="291.5">5.4</text>
<circle cx="1034.6" cy="221.7" r="13" fill="#2075b9" stroke="#fbfaf7" stroke-width="4"/>
<text class="label" x="1048.6" y="206.7">5.5</text>
<text class="label" x="1450" y="205">Curves</text>
<line x1="1450" y1="242" x2="1520" y2="242" stroke="#54565a" stroke-width="7"/>
<text class="tick" x="1536" y="250">none</text>
<line x1="1450" y1="287" x2="1520" y2="287" stroke="#54565a" stroke-width="7" stroke-dasharray="12 10"/>
<text class="tick" x="1536" y="295">low</text>
<text class="label" x="1450" y="365">Models</text>
<circle cx="1465" cy="402" r="10" fill="#d04f83"/>
<text class="tick" x="1536" y="410">GPT-5.4 nano</text>
<circle cx="1465" cy="447" r="10" fill="#7d8b17"/>
<text class="tick" x="1536" y="455">GPT-5.4 mini</text>
<circle cx="1465" cy="492" r="10" fill="#1aa16f"/>
<text class="tick" x="1536" y="500">GPT-5.4</text>
<circle cx="1465" cy="537" r="10" fill="#2075b9"/>
<text class="tick" x="1536" y="545">GPT-5.5</text>
<text class="foot" x="170" y="1098">Source: 223-row merged 224-question 8x28 leaderboard. Y uses answer correctness.</text>
</svg>
